<svg xmlns="http://www.w3.org/2000/svg" width="21" height="20" viewBox="0 0 21 20" fill="none" class="injected-svg icon icon-text__icon" data-src="/assets/shared/icons/tt-moon.svg" xmlns:xlink="http://www.w3.org/1999/xlink">
<path d="M15.28 16.2483C12.0271 18.1263 7.8677 17.0118 5.98965 13.7589C4.11161 10.506 5.22612 6.34661 8.479 4.46856C8.66408 4.3617 8.85286 4.26407 9.04485 4.17575C7.80255 6.55856 7.80993 9.47194 9.21118 11.899C10.6124 14.326 13.1318 15.7891 15.8165 15.9046C15.644 16.0267 15.4651 16.1414 15.28 16.2483ZM17.4024 14.5763C14.592 15.0988 11.7215 13.8046 10.2687 11.2884C8.81599 8.77213 9.13043 5.63909 10.9882 3.46656C11.3623 3.02899 10.9785 2.36418 10.4125 2.46944C9.52443 2.63458 8.66635 2.95029 7.86841 3.41098C4.03146 5.62625 2.71682 10.5326 4.93208 14.3695C7.14735 18.2065 12.0536 19.5211 15.8906 17.3058C16.6885 16.8451 17.391 16.2599 17.978 15.5734C18.3522 15.1358 17.9684 14.471 17.4024 14.5763Z" fill="#414142"></path>
<path fill-rule="evenodd" clip-rule="evenodd" d="M16.2677 5.4953L18.4211 6.62739L18.0098 4.22958L19.752 2.53144L17.3444 2.1816L16.2677 0L15.191 2.1816L12.7835 2.53144L14.5256 4.22958L14.1144 6.62739L16.2677 5.4953Z" fill="#414142"></path>
<path fill-rule="evenodd" clip-rule="evenodd" d="M1.91897 2.28971L2.81621 2.76141L2.64485 1.76232L3.37073 1.05477L2.36759 0.909001L1.91897 0L1.47035 0.909001L0.467207 1.05477L1.19309 1.76232L1.02173 2.76141L1.91897 2.28971Z" fill="#414142"></path>
<path fill-rule="evenodd" clip-rule="evenodd" d="M19.0154 12.6697L19.9126 13.1414L19.7413 12.1423L20.4672 11.4347L19.464 11.2889L19.0154 10.3799L18.5668 11.2889L17.5636 11.4347L18.2895 12.1423L18.1182 13.1414L19.0154 12.6697Z" fill="#414142"></path>
<path fill-rule="evenodd" clip-rule="evenodd" d="M3.44537 18.9282L4.88095 19.683L4.60678 18.0844L5.76819 16.9523L4.16316 16.7191L3.44537 15.2647L2.72758 16.7191L1.12255 16.9523L2.28396 18.0844L2.00979 19.683L3.44537 18.9282Z" fill="#414142"></path>
</svg>