<svg
  xmlns="http://www.w3.org/2000/svg"
  viewBox="0 0 48 47.45"
  class="icon icon-clickable navbar__menu-button"
  aria-hidden="true"
>
  <g id="close">
    <path d="M9.41,41.71A3.41,3.41,0,0,1,7,40.88,3.49,3.49,0,0,1,7,36L35.94,6.73a3.38,3.38,0,0,1,4.82.16,3.48,3.48,0,0,1,.16,4.53L11.8,40.88a3.43,3.43,0,0,1-2.39.83Z"></path>
    <path d="M38.33,41.71a3.42,3.42,0,0,1-2.39-1L7,11.42a3.49,3.49,0,0,1,.37-4.87,3.4,3.4,0,0,1,4.44,0L40.92,35.84a3.48,3.48,0,0,1,.16,4.88l-.16.16a3.44,3.44,0,0,1-2.59.83Z"></path>
  </g>
</svg>
