<svg xmlns="http://www.w3.org/2000/svg" width="48" height="49" viewBox="0 0 48 49" fill="none" class="injected-svg icon icon-text__icon map-legend__item__icon" data-src="/assets/shared/icons/map-legend-cruise-black.svg" xmlns:xlink="http://www.w3.org/1999/xlink">
<path fill-rule="evenodd" clip-rule="evenodd" d="M39.1206 34.938H3.93676C3.74935 34.938 3.5718 34.828 3.48302 34.658L0.553504 28.708C0.474595 28.548 0.484463 28.368 0.573236 28.218C0.662009 28.068 0.819821 27.978 0.997368 27.978H47.1102C47.3272 27.978 47.5146 28.118 47.5836 28.328C47.6527 28.538 47.5836 28.768 47.4061 28.898L39.4066 34.838C39.3178 34.898 39.2192 34.938 39.1107 34.938H39.1206Z" fill="black"></path>
<path fill-rule="evenodd" clip-rule="evenodd" d="M3.13471 26.9079C2.97471 26.9079 2.91471 26.7979 3.01471 26.6679L5.3947 23.6079C5.4947 23.4779 5.71471 23.3679 5.87471 23.3679H34.6547C34.8147 23.3679 35.0347 23.4779 35.1347 23.6079L36.1347 24.8979C36.2347 25.0279 36.4547 25.1379 36.6147 25.1379H37.1347C37.2947 25.1379 37.5247 25.2379 37.6247 25.3679L38.7259 26.6679C38.8259 26.7979 38.7759 26.8979 38.6159 26.8979H3.12471L3.13471 26.9079Z" fill="black"></path>
<path fill-rule="evenodd" clip-rule="evenodd" d="M24.3242 25.7479H25.3942V24.6279H24.3242V25.7479Z" fill="white"></path>
<path fill-rule="evenodd" clip-rule="evenodd" d="M20.084 25.7479H21.154V24.6279H20.084V25.7479Z" fill="white"></path>
<path fill-rule="evenodd" clip-rule="evenodd" d="M32.8047 25.7479H33.8747V24.6279H32.8047V25.7479Z" fill="white"></path>
<path fill-rule="evenodd" clip-rule="evenodd" d="M28.5547 25.7479H29.6247V24.6279H28.5547V25.7479Z" fill="white"></path>
<path fill-rule="evenodd" clip-rule="evenodd" d="M15.8447 25.7479H16.9147V24.6279H15.8447V25.7479Z" fill="white"></path>
<path fill-rule="evenodd" clip-rule="evenodd" d="M11.6045 25.7479H12.6745V24.6279H11.6045V25.7479Z" fill="white"></path>
<path fill-rule="evenodd" clip-rule="evenodd" d="M7.36426 25.7479H8.43427V24.6279H7.36426V25.7479Z" fill="white"></path>
<path fill-rule="evenodd" clip-rule="evenodd" d="M6.81453 22.3278C6.65453 22.3278 6.59454 22.2378 6.68454 22.0978L8.65454 19.2578C8.74454 19.1178 8.96455 19.0078 9.12455 19.0078H20.1045C20.2645 19.0078 20.4045 19.1478 20.4045 19.3078V19.8678C20.4045 20.0278 20.5445 20.1678 20.7045 20.1678H31.5445C31.7045 20.1678 31.9245 20.2778 32.0345 20.3978L33.3945 22.0978C33.4945 22.2278 33.4445 22.3278 33.2845 22.3278H6.81453Z" fill="black"></path>
<path fill-rule="evenodd" clip-rule="evenodd" d="M10.2744 19.1879V17.4879C10.2744 17.3279 10.4144 17.1879 10.5744 17.1879H11.0844C11.2444 17.1879 11.3844 17.0479 11.3844 16.8879V14.8479C11.3844 14.6879 11.4944 14.6179 11.6344 14.7079L18.7844 19.2579C18.9244 19.3479 18.9044 19.4179 18.7344 19.4179L10.5744 19.4479C10.4144 19.4479 10.2744 19.3279 10.2744 19.1779V19.1879Z" fill="black"></path>
<path fill-rule="evenodd" clip-rule="evenodd" d="M15.8447 21.2379H16.9147V20.1179H15.8447V21.2379Z" fill="white"></path>
<path fill-rule="evenodd" clip-rule="evenodd" d="M11.6045 21.2379H12.6745V20.1179H11.6045V21.2379Z" fill="white"></path>
</svg>