<svg xmlns="http://www.w3.org/2000/svg" id="Warstwa_1" data-name="Warstwa 1" viewBox="0 0 48 48" class="injected-svg icon icon-text__icon map-legend__item__icon" data-src="/assets/shared/icons/map-legend-plane-filled.svg" xmlns:xlink="http://www.w3.org/1999/xlink"><path d="M46.61,6.26a14.28,14.28,0,0,1-4.43,8.19l-5.94,5.73,2.45,19.3a1.81,1.81,0,0,1-.15.76,1.68,1.68,0,0,1-.43.65l-3.54,3.6a1.79,1.79,0,0,1-.71.4,1.71,1.71,0,0,1-.81.07,1.94,1.94,0,0,1-.76-.31,1.72,1.72,0,0,1-.54-.63L25.22,30.61l-5.21,5,.73,6.88a1.86,1.86,0,0,1-.15.77,1.83,1.83,0,0,1-.42.64l-2.25,2.3a2,2,0,0,1-1.25.52,1.88,1.88,0,0,1-.76-.31,1.72,1.72,0,0,1-.54-.63l-3.91-9.13-9-3.91a1.66,1.66,0,0,1-.72-.53,1.61,1.61,0,0,1-.37-.83,1.83,1.83,0,0,1,.13-.83,1.74,1.74,0,0,1,.5-.68l2.19-2.19a2.56,2.56,0,0,1,.72-.45,2.2,2.2,0,0,1,.84-.12l7,.73,4.91-5.22L4.2,16a1.8,1.8,0,0,1-.65-.54,1.84,1.84,0,0,1-.34-.77,1.68,1.68,0,0,1,.52-1.46l3.55-3.6A2.06,2.06,0,0,1,8,9.21a2,2,0,0,1,.85-.08l19.3,2.4L34,5.59a15,15,0,0,1,7.67-4.18,4.11,4.11,0,0,1,2,.09,4,4,0,0,1,1.71,1,4.15,4.15,0,0,1,1.09,1.72A4,4,0,0,1,46.61,6.26Z"></path></svg>