<svg xmlns="http://www.w3.org/2000/svg" id="Warstwa_1" data-name="Warstwa 1" viewBox="0 0 48 48" class="injected-svg icon icon-text__icon map-legend__item__icon" data-src="/assets/shared/icons/map-legend-train.svg" xmlns:xlink="http://www.w3.org/1999/xlink"><path d="M42.63,25V36a4.17,4.17,0,0,1-.28,1.64A4.08,4.08,0,0,1,41.43,39a3.89,3.89,0,0,1-1.37,1,4,4,0,0,1-1.64.29h-.71l4.54,4.11a1.31,1.31,0,0,1,.38.87,1,1,0,0,1,0,.51.89.89,0,0,1-.29.43,1.23,1.23,0,0,1-.4.35,1.39,1.39,0,0,1-.53.14,2,2,0,0,1-.93-.33l-1.91-1.81H10.12L8.2,46.24a1.52,1.52,0,0,1-.82.33,1.17,1.17,0,0,1-.55-.13,1.15,1.15,0,0,1-.43-.36,1.38,1.38,0,0,1-.33-.93,1.36,1.36,0,0,1,.44-.88L11,40.17h-.71a4.08,4.08,0,0,1-1.62-.33,4.15,4.15,0,0,1-2.29-2.31,4.14,4.14,0,0,1-.3-1.63V9.9a5.83,5.83,0,0,1,1-3.34A6.21,6.21,0,0,1,9.68,4.32,42.24,42.24,0,0,1,16.8,2a33.65,33.65,0,0,1,7.55-.82A36.12,36.12,0,0,1,39,4.32a6.63,6.63,0,0,1,2.62,2.19,5.38,5.38,0,0,1,1,3.33ZM10.72,6.72A3,3,0,0,0,9.15,8,2.94,2.94,0,0,0,8.7,9.9v.55H40V9.9a3.63,3.63,0,0,0-.61-2,3.49,3.49,0,0,0-1.58-1.21A41.15,41.15,0,0,0,30.7,4.48a34.4,34.4,0,0,0-6.4-.66A40.86,40.86,0,0,0,10.72,6.72Zm-2,17H23V13.07H8.7ZM38.36,37.76a1.46,1.46,0,0,0,.66-.07,1.47,1.47,0,0,0,.91-.91,1.49,1.49,0,0,0,.08-.66v-9.8H8.7v10a1.45,1.45,0,0,0,.09.65,1.58,1.58,0,0,0,.34.55,1.66,1.66,0,0,0,1.1.44ZM14,29.93a2.25,2.25,0,0,1,1.42.51,2.31,2.31,0,0,1,.78,1.3,2.25,2.25,0,0,1-1.35,2.51,2.18,2.18,0,0,1-1.51.07,2.24,2.24,0,0,1-.93-3.73,2.09,2.09,0,0,1,.72-.49A2.36,2.36,0,0,1,14,29.93ZM33.77,40.39h-19l-1.86,1.69H35.63ZM25.61,24H40V13.07H25.72Zm9.09,6.24a1.85,1.85,0,0,1,.83.17,2.08,2.08,0,0,1,.7.48,2.41,2.41,0,0,1,0,3.18,2.27,2.27,0,0,1-.7.49,2.16,2.16,0,0,1-.83.17A2.35,2.35,0,0,1,33.11,34a2.4,2.4,0,0,1-.49-.73,2.27,2.27,0,0,1-.17-.86,2.31,2.31,0,0,1,.17-.86,2.4,2.4,0,0,1,.49-.73,2.26,2.26,0,0,1,.73-.48A2.1,2.1,0,0,1,34.7,30.21Z"></path></svg>