<svg xmlns="http://www.w3.org/2000/svg" id="Layer_1" data-name="Layer 1" viewBox="0 0 48 48" class="injected-svg icon icon-with-description__icon" data-src="/assets/shared/icons/trip-meals.svg" xmlns:xlink="http://www.w3.org/1999/xlink"><path d="M22.92,4.91A1.11,1.11,0,0,0,21.82,6v7.18a1.13,1.13,0,0,1-1.11,1.11,1,1,0,0,1-.77-.33,1.07,1.07,0,0,1-.33-.78V6a1.07,1.07,0,0,0-.33-.78,1.1,1.1,0,0,0-.78-.32A1.11,1.11,0,0,0,17.4,6v7.18a1.13,1.13,0,0,1-1.11,1.11,1,1,0,0,1-.77-.33,1.07,1.07,0,0,1-.33-.78V6a1.07,1.07,0,0,0-.33-.78,1.1,1.1,0,0,0-.78-.32A1.11,1.11,0,0,0,13,6v9.24h0a5.5,5.5,0,0,0,1.62,3.91,5.41,5.41,0,0,0,2,1.26V41.34a2.14,2.14,0,0,0,.65,1.55,2.1,2.1,0,0,0,1.53.65h0a2.1,2.1,0,0,0,1.53-.65,2.14,2.14,0,0,0,.65-1.55V20.23a5.38,5.38,0,0,0,1.5-1.06A5.5,5.5,0,0,0,24,15.26h0V6a1.07,1.07,0,0,0-.33-.78A1.1,1.1,0,0,0,22.92,4.91Z"></path><path d="M34.69,4.33A1,1,0,0,0,33.92,4h-.8a5.32,5.32,0,0,0-3.9,1.62,5.33,5.33,0,0,0-1.62,3.9V23.34a.51.51,0,0,0,.16.38.54.54,0,0,0,.39.17h2.51v17.9a2.12,2.12,0,0,0,.65,1.55,2.15,2.15,0,0,0,1.53.66h0a2.12,2.12,0,0,0,1.52-.66A2.1,2.1,0,0,0,35,41.79V5.1A1.06,1.06,0,0,0,34.69,4.33Z"></path></svg>