<svg xmlns="http://www.w3.org/2000/svg" xmlns:xlink="http://www.w3.org/1999/xlink" version="1.1" id="Layer_1" x="0px" y="0px" viewBox="0 0 48 48" style="enable-background:new 0 0 48 48;" xml:space="preserve" class="injected-svg icon icon-with-description__icon" data-src="/assets/shared/icons/ch-map-pin.svg">
<style type="text/css">
	.st0{fill:#010202;}
	.st1{stroke:#74647E;stroke-width:5.669291e-02;stroke-miterlimit:10;}
	.st2{stroke:#74647E;stroke-width:8.503937e-02;stroke-miterlimit:10;}
	.st3{fill-rule:evenodd;clip-rule:evenodd;}
	.st4{stroke:#FFFFFF;stroke-width:8.503937e-02;stroke-miterlimit:10;}
</style>
<g>
	<path d="M24.1,12.4c-3,0-5.5,2.5-5.5,5.5s2.5,5.5,5.5,5.5s5.5-2.5,5.5-5.5S27.2,12.4,24.1,12.4z M24.1,22.2c-2.3,0-4.3-1.9-4.3-4.3   s1.9-4.3,4.3-4.3s4.3,1.9,4.3,4.3S26.5,22.2,24.1,22.2z"></path>
	<path d="M33.9,8.1C31.3,5.5,27.8,4,24,4c-3.7,0-7.3,1.5-9.9,4.1C9.2,13,8.6,22.2,12.7,27.7L24,44l11.2-16.2   C39.4,22.2,38.8,13,33.9,8.1z M34.2,27L24,41.8L13.8,27C10,21.9,10.5,13.5,15,9c2.4-2.4,5.6-3.7,9-3.7c3.4,0,6.6,1.3,9,3.7   C37.5,13.5,38,21.9,34.2,27z"></path>
</g>
</svg>