<svg xmlns="http://www.w3.org/2000/svg" id="Layer_1" data-name="Layer 1" viewBox="0 0 48 48" class="injected-svg icon icon-clickable zoomed-image__buttons-zoom zoomed-image__button" data-src="/assets/shared/icons/UI-plus.svg" xmlns:xlink="http://www.w3.org/1999/xlink"><path d="M41.23,21H27l0-14.4a2.86,2.86,0,0,0-5.71,0V21H6.85A2.86,2.86,0,0,0,4,23.89a2.88,2.88,0,0,0,1,1.92,2.84,2.84,0,0,0,1.9.93H21.29V41a2.83,2.83,0,0,0,.83,2h0a2.9,2.9,0,0,0,2,1h.19a2.86,2.86,0,0,0,2.77-3l0-14.31H41.43a2.86,2.86,0,0,0-.2-5.7Z"></path></svg>