   <svg
            xmlns="http://www.w3.org/2000/svg"
            width="20"
            height="20"
            viewBox="0 0 20 20"
            className="injected-svg icon icon-clickable search__icon-expand"
            aria-label="Search icon"
          >
            <title>Search Icon</title>
            <path d="M14.4432 13.1951C15.3782 11.9183 15.9374 10.35 15.9374 8.64981C15.9374 4.39382 12.4747 0.93103 8.2187 0.93103C3.96273 0.93103 0.5 4.39382 0.5 8.64981C0.5 12.9058 3.96277 16.3686 8.21873 16.3686C9.91889 16.3686 11.4873 15.8093 12.7641 14.8743L17.8208 19.931L19.5 18.2518L14.4432 13.1951ZM8.21873 13.9936C5.27202 13.9936 2.87501 11.5965 2.87501 8.64981C2.87501 5.70308 5.27202 3.30605 8.21873 3.30605C11.1654 3.30605 13.5625 5.70308 13.5625 8.64981C13.5625 11.5965 11.1654 13.9936 8.21873 13.9936Z"></path>
          </svg>