<svg xmlns="http://www.w3.org/2000/svg" xmlns:xlink="http://www.w3.org/1999/xlink" version="1.1" id="Layer_1" x="0px" y="0px" viewBox="0 0 48 48" style="fill: #414141 !important" xml:space="preserve" class="injected-svg icon tile__icon" data-src="/assets/shared/icons/ch-flex-deposit.svg">
<style type="text/css">
	.st0{fill:#010202;}
	.st1{stroke:#74647E;stroke-width:5.669291e-02;stroke-miterlimit:10;}
	.st2{stroke:#74647E;stroke-width:8.503937e-02;stroke-miterlimit:10;}
	.st3{fill-rule:evenodd;clip-rule:evenodd;}
	.st4{stroke:#FFFFFF;stroke-width:8.503937e-02;stroke-miterlimit:10;}
</style>
<g>
	<path d="M41.6,17.5v-7.2H33l-0.1-0.1l-4.1-5.1l-4.8,6l-4.8-6L15,10.3H8.3c-2.3,0-4.3,1.9-4.3,4.3v22.9c0,3,2.5,5.5,5.5,5.5H44V17.5   H41.6z M40.3,11.6v5.9h-1.5l-0.1-0.1L34,11.6H40.3z M24.9,12l3.9-4.9L29,7.3l8.1,10.2h-8l-0.1-0.1l-4.2-5.3L24.9,12z M19.2,7.2   l0.1,0.2l8.1,10.2H10.9L19.2,7.2z M8.3,11.6H14l-4.7,5.9h-1c-1.6,0-3-1.3-3-3S6.6,11.6,8.3,11.6z M42.7,34.4h-4.3   c-2.3,0-4.2-1.9-4.2-4.2c0-2.3,1.9-4.2,4.2-4.2h4.3V34.4z M42.7,24.8h-4.3c-3,0-5.5,2.5-5.5,5.5s2.5,5.5,5.5,5.5h4.3v5.9H9.5   c-2.3,0-4.2-1.9-4.2-4.2V17.9l1.3,0.6c0.5,0.2,1.1,0.3,1.7,0.3h34.4V24.8z"></path>
	<rect x="37.8" y="29.2" width="2.1" height="2.1"></rect>
</g>
</svg>