<svg xmlns="http://www.w3.org/2000/svg" id="Warstwa_1" data-name="Warstwa 1" viewBox="0 0 48 48" class="injected-svg icon tile__icon" data-src="/assets/shared/icons/brand-passport.svg" xmlns:xlink="http://www.w3.org/1999/xlink" style="fill: #414141 !important"><path d="M25.43,1.43l17.93,4.8A3.1,3.1,0,0,1,45.55,10L36.34,44.38a3.09,3.09,0,0,1-3,2.3,3.21,3.21,0,0,1-.8-.11L21.76,43.68H3.89a1.54,1.54,0,0,1-1.54-1.55V11.2A1.54,1.54,0,0,1,3.89,9.65H20l1.61-6a3.09,3.09,0,0,1,3-2.3A3.21,3.21,0,0,1,25.43,1.43ZM3.89,11.2V42.13h23.2a1.54,1.54,0,0,0,1.55-1.54V12.74a1.54,1.54,0,0,0-1.55-1.54ZM34.85,44l9.2-34.36a1.54,1.54,0,0,0-.15-1.17A1.51,1.51,0,0,0,43,7.73L25,2.92a1.83,1.83,0,0,0-.4,0A1.54,1.54,0,0,0,23.14,4L21.63,9.65h5.46a3.09,3.09,0,0,1,2.72,1.64l1.38.37,1,.28L36.8,7.68,38.08,8l-2.87,4.72.66.18,1.6.43,1.74-1,.85.23-1.34,2L38.86,17,38,16.81l-1-1.75-2.26-.61L34.87,20l-1.28-.34-1.83-6-1.57-.42V25.52l.09-.37,1.5.4-.8,3-.79-.22V40.59a3.09,3.09,0,0,1-2.63,3L33,45.08a1.83,1.83,0,0,0,.4.05A1.56,1.56,0,0,0,34.85,44ZM16.27,14.29a9.28,9.28,0,1,0,9.28,9.28A9.28,9.28,0,0,0,16.27,14.29Zm6.86,5.8H19.79a15.1,15.1,0,0,0-1.33-3.9A7.72,7.72,0,0,1,23.13,20.09Zm-4.54,3.48a14.8,14.8,0,0,1-.13,1.94H14.07A16.83,16.83,0,0,1,14,23.57a16.66,16.66,0,0,1,.12-1.93h4.4A16.66,16.66,0,0,1,18.59,23.57ZM16,15.86h.45a12.91,12.91,0,0,1,1.72,4.23H14.33A12.84,12.84,0,0,1,16,15.86Zm-2,.33a15.1,15.1,0,0,0-1.33,3.9H9.4A7.72,7.72,0,0,1,14.07,16.19ZM8.53,23.57a7.69,7.69,0,0,1,.28-1.93h3.7a16.87,16.87,0,0,0-.11,1.93c0,.69,0,1.32.11,1.94H8.81A7.84,7.84,0,0,1,8.53,23.57Zm.87,3.48h3.35A15.23,15.23,0,0,0,14.07,31,7.72,7.72,0,0,1,9.4,27.05Zm7.09,4.23h-.1l-.12,0-.12,0H16a13,13,0,0,1-1.71-4.23h3.88A12.8,12.8,0,0,1,16.49,31.28Zm2-.33a15.6,15.6,0,0,0,1.33-3.9h3.34A7.69,7.69,0,0,1,18.46,31ZM20,25.51a17,17,0,0,0,.11-1.94A16.87,16.87,0,0,0,20,21.64h3.71A7.68,7.68,0,0,1,24,23.57a7.83,7.83,0,0,1-.27,1.94Zm4,12H8.53V39H24Zm10-8.15.8-3,1.49.4-.8,3Zm-.8,3L30.36,42.78l1.5.4,2.8-10.46Z" fill-rule="evenodd"></path></svg>