<svg xmlns="http://www.w3.org/2000/svg" xmlns:xlink="http://www.w3.org/1999/xlink" version="1.1" id="Layer_1" x="0px" y="0px" viewBox="0 0 48 48" style="fill: #414141 !important" xml:space="preserve" class="injected-svg icon tile__icon" data-src="/assets/shared/icons/ch-flexible-dates.svg">
<style type="text/css">
	.st0{fill:#010202;}
	.st1{stroke:#74647E;stroke-width:5.669291e-02;stroke-miterlimit:10;}
	.st2{stroke:#74647E;stroke-width:8.503937e-02;stroke-miterlimit:10;}
	.st3{fill-rule:evenodd;clip-rule:evenodd;}
	.st4{stroke:#FFFFFF;stroke-width:8.503937e-02;stroke-miterlimit:10;}
</style>
<g>
	<path d="M19.8,35.8h6.3v-6.3h-6.3V35.8z M20.9,30.6h4v4h-4V30.6z"></path>
	<path d="M26.1,20.3h-6.3v6.3h6.3V20.3z M25,25.5h-4v-4h4V25.5z"></path>
	<path d="M10.7,35.8H17v-6.3h-6.3V35.8z M11.8,30.6h4v4h-4V30.6z"></path>
	<path d="M17,20.3h-6.3v6.3H17V20.3z M15.9,25.5h-4v-4h4V25.5z"></path>
	<path d="M42,31.3v1.5c-0.5-0.8-1.2-1.5-2-2.1c-1.2-0.8-2.6-1.3-4.1-1.3c-0.3,0-0.5,0-0.8,0.1l0,0h-6.3v5.6c-0.1,0.5-0.2,1-0.2,1.5   h1.1c0-3.4,2.7-6.1,6.1-6.1c2.2,0,4.2,1.2,5.3,3h-1.4v1.1h3.4v-3.4H42z M30.8,31.5c-0.3,0.3-0.6,0.6-0.8,1v-1.9h1.9   C31.5,30.9,31.2,31.2,30.8,31.5z"></path>
	<path d="M36,42.9c-2.2,0-4.2-1.2-5.3-3H32v-1.1h-3.4v3.4h1.1v-1.5c0.5,0.8,1.2,1.5,2,2.1C33,43.6,34.5,44,36,44   c1.9,0,3.8-0.8,5.1-2.1c1.4-1.4,2.1-3.2,2.1-5.1H42C42,40.1,39.3,42.9,36,42.9z"></path>
	<path d="M35.2,26.7v-6.3h-6.3v6.3H35.2z M30,21.5h4v4h-4V21.5z"></path>
	<path d="M6.1,16.2h33.6v11.8c0.2,0.1,0.4,0.2,0.6,0.4c0.2,0.2,0.5,0.4,0.7,0.6V6.6H30.4V4h-1.3v2.6H16.7V4h-1.3v2.6H4.8v35.5h21.5   v-1.3H6.1V16.2z M6.1,7.9h9.3v2.6h1.3V7.9h12.4v2.6h1.3V7.9h9.3v7H6.1V7.9z"></path>
</g>
</svg>