<svg xmlns="http://www.w3.org/2000/svg" xmlns:xlink="http://www.w3.org/1999/xlink" version="1.1" id="Layer_1" x="0px" y="0px" viewBox="0 0 48 48" style="enable-background:new 0 0 48 48;" xml:space="preserve" class="injected-svg icon icon-text__icon transferInfo__icon__icon" data-src="/assets/shared/icons/ch-triple-share.svg">
<style type="text/css">
	.st1{stroke:#74647E;stroke-width:5.669291e-02;stroke-miterlimit:10;}
	.st2{stroke:#74647E;stroke-width:8.503937e-02;stroke-miterlimit:10;}
	.st3{fill-rule:evenodd;clip-rule:evenodd;}
	.st4{stroke:#FFFFFF;stroke-width:8.503937e-02;stroke-miterlimit:10;}
</style>
<path d="M24,15.6c3.2,0,5.8-2.6,5.8-5.8C29.8,6.6,27.2,4,24,4s-5.8,2.6-5.8,5.8C18.2,13,20.8,15.6,24,15.6z M24,5.2  c2.5,0,4.6,2,4.6,4.6s-2,4.6-4.6,4.6s-4.6-2-4.6-4.6S21.5,5.2,24,5.2z M36.9,20.2c2.5,0,4.5-2,4.5-4.5s-2-4.5-4.5-4.5  c-2.5,0-4.5,2-4.5,4.5S34.4,20.2,36.9,20.2z M36.9,12.3c1.8,0,3.3,1.5,3.3,3.3c0,1.8-1.5,3.3-3.3,3.3c-1.8,0-3.3-1.5-3.3-3.3  C33.6,13.8,35.1,12.3,36.9,12.3z M14.3,42.8h-2.6v-6.5h-1.2v6.5H7.2v-9H5.3v0l0-7.5c0-2,1.7-3.6,3.7-3.6h5.3v-1.2H8.9  c-2.7,0-4.9,2.2-4.9,4.8L4.1,35h1.9v9h9.6v-9h1.3v-1.2h-2.5V42.8z M11.1,20.2c2.5,0,4.5-2,4.5-4.5s-2-4.5-4.5-4.5  c-2.5,0-4.5,2-4.5,4.5S8.6,20.2,11.1,20.2z M11.1,12.3c1.8,0,3.3,1.5,3.3,3.3c0,1.8-1.5,3.3-3.3,3.3c-1.8,0-3.3-1.5-3.3-3.3  C7.7,13.8,9.2,12.3,11.1,12.3z M39.1,21.4h-5.3v1.2h5.3c2,0,3.7,1.6,3.7,3.6l0,7.5h-1.9v9h-3.3v-6.5h-1.2v6.5h-2.6v-9h-2.5V35h1.3v9  h9.6v-9h1.9l0.1-8.7C44,23.6,41.8,21.4,39.1,21.4z M32.4,22.7L32.4,22.7c0-3.2-2.6-5.7-5.8-5.7h-5.2c-3.2,0-5.8,2.6-5.8,5.8v9.7h2.6  V44h11.6V32.4h2.6V22.7z M31.2,31.1h-2.6v11.6h-4v-9h-1.2v9h-4V31.1h-2.6v-8.4c0-2.5,2-4.6,4.6-4.6h5.2c2.5,0,4.6,2,4.6,4.6V31.1z"></path>
</svg>